<svg width="92" height="59" viewBox="0 0 92 59" fill="none" xmlns="http://www.w3.org/2000/svg">
<g id="logo">
<path id="Vector" d="M11.5004 15.7883C11.4014 14.5413 11.5348 13.1966 11.9294 11.7955C12.8465 8.53832 14.9955 5.58909 17.7316 3.4552C20.4663 1.31993 23.7868 0 27.044 0H48.0392C48.9356 0 49.4581 0.727338 49.2051 1.62379L46.7014 10.5223C46.4498 11.4188 45.5176 12.1461 44.6211 12.1461H25.8024C24.7946 12.1461 23.7469 12.9642 23.4637 13.972C23.1956 14.9207 23.7002 15.699 24.598 15.7883H11.5004Z" fill="white"/>
<path id="Vector_2" d="M59.4223 22.1034L58.4681 25.4981C58.3388 25.9532 57.8658 26.323 57.4107 26.323H52.8033C52.3455 26.323 51.8698 26.6943 51.7405 27.1521L50.0507 33.1564C49.9187 33.628 50.1937 34.0089 50.6639 34.0089H55.0115C55.468 34.0089 55.7333 34.3787 55.6054 34.8366L54.6512 38.2258C54.5234 38.6836 54.049 39.0535 53.5912 39.0535H44.8507C42.5024 39.0535 41.1343 37.1506 41.7956 34.8022L43.9474 27.1521C44.0767 26.6943 43.8099 26.323 43.3521 26.323H43.2599C42.6137 26.323 42.0528 26.7589 41.8781 27.3817C41.8768 27.3845 41.8768 27.3886 41.8754 27.3913C40.9748 30.5936 38.8615 33.4919 36.1736 35.5887C33.4842 37.6868 30.2201 38.9848 27.0193 38.9848H1.2297C0.33325 38.9848 -0.189223 38.2574 0.0637645 37.361L2.56751 28.4624C2.81913 27.566 3.75133 26.8386 4.64778 26.8386H28.2608C29.1573 26.8386 30.0895 26.1113 30.3411 25.2148C30.3837 25.0622 30.4043 24.9137 30.4043 24.7735C30.4043 24.1273 29.9685 23.6433 29.2879 23.5952H37.6406C38.1053 23.5952 38.5866 23.2198 38.7172 22.7565L39.9821 18.2508C40.6215 18.8888 41.1426 19.6367 41.5303 20.4713C41.7613 20.969 42.27 21.2784 42.82 21.2784H44.771C45.2288 21.2784 45.7046 20.9072 45.8338 20.4493L48.2454 12.9848C48.3747 12.5228 48.8545 12.1489 49.3151 12.1489H55.4377C55.8983 12.1489 56.1678 12.5228 56.0385 12.9848L53.6269 20.4493C53.4977 20.9072 53.7644 21.2784 54.2223 21.2784H58.8297C59.2848 21.2784 59.5515 21.6483 59.4223 22.1034Z" fill="white"/>
<path id="Vector_3" d="M37.2872 41.0953L36.0677 45.4291C35.9907 45.7013 35.7858 45.9557 35.5177 46.1097L27.9363 49.7615C27.6696 49.9155 27.4633 50.1698 27.3863 50.4421L25.4216 57.4281C25.2923 57.8887 24.8125 58.2627 24.3519 58.2627H20.9764C20.5158 58.2627 20.2463 57.8887 20.3769 57.4281L24.8922 41.3799C25.0215 40.9193 25.5013 40.5453 25.9619 40.5453H29.3374C29.798 40.5453 30.0675 40.9193 29.9368 41.3799L29.3649 43.4121C29.303 43.6334 29.5079 43.7682 29.7292 43.6513C31.3503 42.7878 34.954 41.494 36.575 40.6292C37.0067 40.3996 37.4082 40.6636 37.2872 41.0953Z" fill="#004B70"/>
<path id="Vector_4" d="M54.5839 41.3716L50.0645 57.4349C49.9366 57.8914 49.4623 58.2613 49.0044 58.2613H35.8312C35.3747 58.2613 35.108 57.8914 35.2372 57.4349L39.7566 41.3716C39.8845 40.9151 40.3589 40.5453 40.8167 40.5453H44.2073C44.6638 40.5453 44.9305 40.9151 44.8013 41.3716L41.7008 52.3903C41.5729 52.8468 41.8383 53.2166 42.2948 53.2166H45.3787C45.8352 53.2166 46.3096 52.8468 46.4388 52.3903L49.5393 41.3716C49.6671 40.9151 50.1415 40.5453 50.5993 40.5453H53.9899C54.4464 40.5453 54.7118 40.9151 54.5839 41.3716Z" fill="#004B70"/>
<path id="Vector_5" d="M60.9526 46.6417L59.3109 52.4783C59.1803 52.9444 59.4511 53.3239 59.9186 53.3239H67.0751C67.5412 53.3239 67.8135 53.702 67.6828 54.1695L66.7396 57.5243C66.609 57.9904 66.1237 58.3699 65.6576 58.3699H53.4564C52.9903 58.3699 52.7181 57.9918 52.8487 57.5243L57.3296 41.5985C57.4602 41.1324 57.9456 40.7529 58.4117 40.7529H70.6128C71.0789 40.7529 71.3512 41.131 71.2205 41.5985L70.2773 44.9533C70.1467 45.4194 69.6614 45.7989 69.1953 45.7989H62.0388C61.5685 45.7962 61.0832 46.1743 60.9526 46.6417Z" fill="#004B70"/>
<path id="Vector_6" d="M73.3489 34.1918C72.3713 34.0955 71.644 33.7752 71.0775 33.1509C70.9373 32.9969 70.9001 32.766 70.9675 32.5267L73.5249 23.4371C73.8686 22.2161 73.1578 21.2275 71.9368 21.2275H63.7395C62.5199 21.2275 61.2536 22.2161 60.9099 23.4357L57.1343 36.8577C56.7906 38.0787 57.5014 39.0673 58.7224 39.0673H66.9183C67.6567 39.0673 68.4115 38.7056 68.9684 38.1502C69.0894 38.0306 69.2653 38.0072 69.3616 38.0924C70.0284 38.6837 70.8506 38.9339 71.8543 39.0288C72.1678 39.0576 72.5184 38.806 72.6106 38.4829C72.9887 37.1685 73.3063 36.0644 73.6857 34.7417C73.7669 34.4599 73.6225 34.2193 73.3489 34.1918ZM69.1608 29.6174L67.1988 31.1188C67.1163 31.182 67.0613 31.2714 67.0517 31.3608L66.8193 33.4809C66.7946 33.7037 66.5127 33.8741 66.3422 33.7697L64.7198 32.7687C64.6525 32.7275 64.5562 32.7275 64.4655 32.7687L62.2807 33.7697C62.0511 33.8755 61.8641 33.705 61.9658 33.4809L62.9255 31.3608C62.9654 31.2714 62.9613 31.182 62.9145 31.1188L61.7967 29.6174C61.6785 29.4592 61.8462 29.1843 62.08 29.1513L64.295 28.8419C64.3871 28.8295 64.4806 28.7732 64.5425 28.692L66.037 26.763C66.1938 26.5595 66.4839 26.5595 66.5279 26.763L66.9376 28.692C66.9541 28.7732 67.016 28.8282 67.1012 28.8419L69.143 29.1513C69.3547 29.1843 69.3671 29.4592 69.1608 29.6174Z" fill="white"/>
<path id="Vector_7" d="M5.23764 57.424C5.10702 57.8873 5.37788 58.2627 5.84123 58.2627H16.3086C16.7719 58.2627 17.2532 57.8873 17.3838 57.424L22.8436 38.9861H10.6975L5.23764 57.424Z" fill="#004B70"/>
<path id="Vector_8" d="M27.1513 24.4353C27.2819 23.972 27.7631 23.5966 28.2264 23.5966H37.6406C38.1039 23.5966 38.5852 23.2213 38.7158 22.7579L40.4358 16.6298C40.5664 16.1665 40.2956 15.7911 39.8322 15.7911H7.18039C6.71704 15.7911 6.23581 16.1665 6.1052 16.6298L4.38516 22.7579C4.25454 23.2213 4.5254 23.5966 4.98875 23.5966H14.4029C14.8663 23.5966 15.1371 23.972 15.0065 24.4353L14.2943 26.8401H26.4404" fill="#004B70"/>
<path id="Vector_9" d="M87.7211 40.4697L86.4699 44.6743C86.4149 44.8544 86.25 45.0331 86.0932 45.1335L78.1667 49.1139C77.9165 49.2762 77.8533 49.6144 78.0292 49.855L83.5798 57.4529C83.8301 57.7966 83.584 58.2778 83.1591 58.2764L79.2172 58.2558C78.9669 58.2545 78.7332 58.1321 78.5861 57.9286L75.8582 54.4693C75.7304 54.2933 75.4567 54.3414 75.3976 54.5518L74.5232 57.6866C74.4283 58.0235 74.1203 58.2572 73.7711 58.2572H70.3503C69.8333 58.2572 69.4621 57.7292 69.5995 57.2659L74.9535 38.2616C74.86 38.6988 75.1254 39.0426 75.5709 39.0426H78.9656C79.4165 39.0426 79.8854 38.6878 80.0298 38.241L78.549 43.3571C78.4857 43.5853 78.7346 43.7723 78.934 43.6486L86.9539 39.8826C87.3582 39.6324 87.8559 40.0146 87.7211 40.4697Z" fill="#004B70"/>
<path id="Vector_10" d="M91.9779 21.7734L90.7514 26.1333C90.6744 26.4069 90.4682 26.6626 90.1987 26.818L82.572 30.4918C82.3025 30.6472 82.0962 30.9029 82.0192 31.1765L80.0421 38.2038C79.9115 38.6672 79.4302 39.0439 78.9655 39.0439H75.5708C75.1075 39.0439 74.8366 38.6685 74.9672 38.2038L79.5086 22.0594C79.6392 21.596 80.1205 21.2193 80.5852 21.2193H83.9799C84.4432 21.2193 84.7141 21.5947 84.5835 22.0594L84.0088 24.1039C83.9455 24.3266 84.1531 24.4628 84.3759 24.3445C86.0065 23.4756 89.6322 22.1735 91.2629 21.3045C91.696 21.0736 92.1002 21.3389 91.9779 21.7734Z" fill="white"/>
<path id="Vector_11" d="M80.0297 38.241L80.0833 38.054L80.0421 38.2025C80.038 38.2149 80.0352 38.2286 80.0297 38.241Z" fill="white"/>
</g>
</svg>
